HIERARCHY
ROOT Spine
{
    OFFSET 0.0 0.0 -0.0
    CHANNELS 6 Xposition Yposition Zposition Zrotation Xrotation Yrotation
    JOINT ShoulderCenter
    {
        OFFSET 0.0 28.7485408782959 0.0
        CHANNELS 3 Zrotation Xrotation Yrotation
        JOINT LeftShoulder
        {
            OFFSET 16.908462524414062 0.0 0.0
            CHANNELS 3 Zrotation Xrotation Yrotation
            JOINT LeftElbow
            {
                OFFSET 25.48190689086914 0.0 0.0
                CHANNELS 3 Zrotation Xrotation Yrotation
                JOINT LeftHand
                {
                    OFFSET 27.341909408569336 0.0 0.0
                    CHANNELS 3 Zrotation Xrotation Yrotation
                    End Site
                    {
                        OFFSET 10.93676471710205 0.0 0.0
                    }
                }
            }
        }
        JOINT RightShoulder
        {
            OFFSET -16.908462524414062 0.0 0.0
            CHANNELS 3 Zrotation Xrotation Yrotation
            JOINT RightElbow
            {
                OFFSET -25.48190689086914 0.0 0.0
                CHANNELS 3 Zrotation Xrotation Yrotation
                JOINT RightHand
                {
                    OFFSET -27.341909408569336 0.0 0.0
                    CHANNELS 3 Zrotation Xrotation Yrotation
                    End Site
                    {
                        OFFSET -10.93676471710205 0.0 0.0
                    }
                }
            }
        }
        End Site
        {
            OFFSET 0.0 11.499417304992676 0.0
        }
    }
    JOINT LeftHip
    {
        OFFSET 14.358984868242167 -14.358984868242167 0.0
        CHANNELS 3 Zrotation Xrotation Yrotation
        JOINT LeftKnee
        {
            OFFSET 0.0 -39.03428268432617 0.0
            CHANNELS 3 Zrotation Xrotation Yrotation
            JOINT LeftFoot
            {
                OFFSET 0.0 -38.532859802246094 0.0
                CHANNELS 3 Zrotation Xrotation Yrotation
                End Site
                {
                    OFFSET 0.0 0.0 15.413145065307617
                }
            }
        }
    }
    JOINT RightHip
    {
        OFFSET -14.358984868242167 -14.358984868242167 0.0
        CHANNELS 3 Zrotation Xrotation Yrotation
        JOINT RightKnee
        {
            OFFSET 0.0 -39.03428268432617 0.0
            CHANNELS 3 Zrotation Xrotation Yrotation
            JOINT RightFoot
            {
                OFFSET 0.0 -38.532859802246094 0.0
                CHANNELS 3 Zrotation Xrotation Yrotation
                End Site
                {
                    OFFSET 0.0 0.0 15.413145065307617
                }
            }
        }
    }
}
MOTION
Frames: 4
Frame Time: 0.03333333333333333
99.80000305175781 -4.5 -59.500003814697266 34.46728051368063 3.996686472910117 -86.9560245029763 -1.3264428378657911e-06 5.013644495629744e-07 5.990830816593851 100.1450627197605 67.25974002407723 -107.05029437732662 -1.3864013173930235e-06 1.6877830832775927e-06 142.55235345569557 0.0 3.1805546814635176e-15 0.0 -96.45338046332675 61.89264198018704 51.04161422508241 2.4341979209616e-06 2.423579266675214e-07 -131.3527813229547 1.5902773407317584e-15 -6.3611093629270335e-15 8.827812596100317e-32 -6.256310721436505 -65.53558999630097 51.89536330049089 30.26258769461911 15.277623058710219 -32.36872807636413 -1.9878466759146977e-16 7.004489974933113e-34 -4.0378135604517293e-16 -10.939892575836515 -61.27173947669736 -70.33559369142976 -41.69838618105726 13.782083032864906 75.54350836441651 -3.9756933518293955e-16 2.517305935606731e-32 -7.255640367088647e-15
100.19999694824219 -4.900000095367432 -60.60000228881836 33.35823472743348 4.180001673628602 -86.84435710147747 7.682767245772886e-07 6.43684192159715e-07 5.594911438465814 94.63875376210642 65.71363015642535 -97.3320030286636 2.5458362243466833e-06 1.859315511253081e-06 142.97262775585213 0.0 3.1805546814635168e-15 0.0 -96.69098359690565 60.80416307125634 50.63115052869896 3.166387569047888e-06 4.194709347957509e-06 -131.7719977281801 3.1805546814635168e-15 0.0 0.0 -4.13667932312034 -65.42770202332915 54.376574734299815 31.731733390122912 15.269463622616142 -34.14442579611535 1.9878466759146975e-16 -1.9878466759146975e-16 1.882242321256729e-15 -10.438481987789865 -58.48163179521801 -69.24796342766172 -41.54965467100186 12.144748692024447 81.43271187994874 1.1927080055488188e-15 -3.975693351829396e-16 -3.0811623476677818e-15
100.69999694824219 -5.299999713897705 -61.79999542236328 32.026568304072164 4.786408924057819 -86.53031650082009 -1.1564303440570888e-06 -1.085802236512727e-06 5.8512237475665705 91.98004171222152 62.767093831409206 -90.59896121382087 -4.576235379178455e-06 -1.520453338993251e-06 143.6583027214352 -6.3611093629270335e-15 0.0 0.0 -96.68830457613483 60.323671891332395 51.1944223561766 -3.0722825977943374e-06 6.683072245915982e-07 -132.11827106240275 -3.180554681463516e-15 -6.361109362927032e-15 -1.7655625192200634e-31 -2.3918966651205236 -65.27381091276341 55.82826654361461 33.73670349339698 15.255218312032945 -37.37797746504839 -3.696215479080089e-33 1.9878466759146985e-16 2.1307231557460674e-15 -9.562840055312202 -55.56082019248261 -67.97551229984788 -40.58218959239985 11.758766696825667 88.07526166373586 0.0 0.0 -1.3914926731402886e-15
101.30000305175781 -5.900000095367432 -63.099998474121094 31.30643111864109 5.3790238010678735 -86.86442329409388 1.3006950579475458e-06 -2.298183044700383e-06 6.228516204401478 90.08690713090743 59.84846398454294 -85.63354547076722 4.436102142658597e-06 -3.3553858559275207e-06 145.07350289223947 0.0 0.0 0.0 -95.50072943150552 59.93579505456996 51.04067822810075 7.779631718261133e-07 4.27369108957774e-06 -132.90576360500307 -4.770832022195275e-15 6.3611093629270335e-15 2.648343778830095e-31 0.19641688859116646 -65.83343322624636 57.761775472655415 36.11321587540297 15.397917542695495 -41.84750804735446 -7.951386703658794e-16 3.975693351829397e-16 3.447671578539555e-15 -8.472302986555034 -53.61932001567272 -66.90231568438462 -39.00213162442628 12.125986006396609 89.95296514578651 -2.3854160110976368e-15 -1.4896933755919285e-31 7.156248033292912e-15
